<svg width="65" height="36" viewBox="0 0 65 36" fill="none" xmlns="http://www.w3.org/2000/svg">
<path d="M40.9997 27.6172C41.0337 27.6112 37.9186 28.1913 35.8021 28.3553C35.0244 28.4191 34.2361 28.4707 33.4286 28.4904V35.35H36.7499C39.0873 35.35 40.9997 33.9832 40.9997 32.3128V27.6172ZM24.0003 27.6172C23.9663 27.6112 27.0814 28.1913 29.1979 28.3553C29.9756 28.4191 30.7639 28.4707 31.5714 28.4904V35.35H28.2501C25.9127 35.35 24.0003 33.9832 24.0003 32.3128V27.6172Z" fill="#EEEEEE"/>
<path d="M64.567 3.28643C64.2396 2.9353 62.141 3.86601 60.0175 2.67089C55.6364 0.204519 44.5651 -2.17513 37.3578 3.46622C36.5862 4.06907 33.3617 4.1706 32.4598 4.1283C31.5579 4.17272 28.3334 4.07118 27.5618 3.46622C20.3564 -2.17513 9.28506 0.204519 4.90402 2.67089C2.78052 3.86601 0.681905 2.9353 0.354476 3.28643C-0.118477 3.79197 -0.118477 5.81626 0.356391 6.32392C0.82743 6.82946 3.18454 7.41327 3.65366 8.9299C4.12662 10.4486 4.13045 19.4173 7.8911 22.5182C11.4124 25.4203 19.6269 26.2939 24.8332 23.0217C29.3751 20.1682 29.2161 14.1609 30.0491 10.5819C30.3459 9.30642 31.1826 8.66338 32.4617 8.66338C33.7408 8.66338 34.5775 9.30642 34.8743 10.5819C35.7073 14.1588 35.5464 20.1682 40.0902 23.0217C45.2965 26.2918 53.511 25.4182 57.0304 22.5182C60.793 19.4194 60.7968 10.4486 61.2678 8.9299C61.7369 7.41327 64.0941 6.82735 64.5651 6.32392C65.04 5.81626 65.0419 3.79197 64.567 3.28643ZM25.8997 11.0071C25.7523 13.3444 25.3751 17.833 22.8418 19.4257C21.2889 20.403 19.265 20.9974 17.1472 20.9974H17.1453C14.7997 20.9974 11.5483 20.2634 10.2769 19.2163C8.68765 17.907 8.08257 12.5174 7.85471 10.5015C7.70919 9.21758 7.31857 6.08067 8.59765 5.59839C10.6273 4.83479 13.4593 4.23829 16.3564 4.23829C17.6833 4.23829 22.141 4.32924 24.3123 5.80568C26.2367 7.11079 25.982 9.721 25.8997 11.0071ZM57.0687 10.4719C56.8408 12.4899 56.2358 17.907 54.6465 19.2163C53.3751 20.2634 50.1237 20.9974 47.7781 20.9974H47.7762C45.6565 20.9974 43.6345 20.403 42.0797 19.4257C39.5464 17.8351 39.1692 13.374 39.0218 11.0367C38.9414 9.75062 38.6848 7.12137 40.6091 5.81626C42.7824 4.33982 47.2381 4.23829 48.5651 4.23829C51.4622 4.23829 54.2922 4.82421 56.3238 5.58781C57.6029 6.07009 57.2142 9.18796 57.0687 10.4719Z" fill="#D84040"/>
</svg>
