<svg width="250" viewBox="0 0 335 39" fill="none" xmlns="http://www.w3.org/2000/svg">
<path d="M2.26758 22.8109C2.26758 21.8148 2.48438 20.9066 2.91797 20.0863C3.35156 19.266 4.00195 18.5629 4.86914 17.9769C5.73633 17.3793 6.81445 16.9222 8.10352 16.6058C9.4043 16.2777 10.916 16.1136 12.6387 16.1136C13.916 16.1136 15.2578 16.2074 16.6641 16.3949C18.082 16.5824 19.541 16.8695 21.041 17.2562C20.9824 16.6 20.7832 15.9965 20.4434 15.4457C20.1035 14.8832 19.6289 14.4027 19.0195 14.0043C18.4219 13.5941 17.6953 13.2777 16.8398 13.0551C15.9961 12.8324 15.0352 12.7211 13.957 12.7211C13.3711 12.7211 12.7266 12.7562 12.0234 12.8265C11.3203 12.8969 10.5938 13.0023 9.84375 13.1429C9.09375 13.2836 8.34961 13.4594 7.61133 13.6703C6.88477 13.8812 6.20508 14.1332 5.57227 14.4261L3.99023 10.1547C4.77539 9.87341 5.61328 9.6156 6.50391 9.38123C7.40625 9.14685 8.32617 8.94763 9.26367 8.78357C10.2012 8.60779 11.1387 8.47302 12.0762 8.37927C13.0137 8.28552 13.9219 8.23865 14.8008 8.23865C18.6797 8.23865 21.5625 9.22888 23.4492 11.2094C25.3359 13.1898 26.2793 16.225 26.2793 20.3148V29.35H21.0762V27.3988C20.5371 27.7152 19.9453 28.014 19.3008 28.2953C18.668 28.5765 17.9766 28.8226 17.2266 29.0336C16.4766 29.2445 15.668 29.4086 14.8008 29.5258C13.9453 29.6547 13.0371 29.7191 12.0762 29.7191C10.459 29.7191 9.03516 29.5433 7.80469 29.1918C6.58594 28.8402 5.56641 28.3539 4.74609 27.7328C3.92578 27.1117 3.30469 26.3851 2.88281 25.5531C2.47266 24.7094 2.26758 23.7953 2.26758 22.8109ZM7.75195 22.6351C7.75195 22.975 7.83984 23.3031 8.01562 23.6195C8.19141 23.9242 8.47266 24.1996 8.85938 24.4457C9.24609 24.6801 9.73828 24.8734 10.3359 25.0258C10.9453 25.1664 11.6777 25.2367 12.5332 25.2367C13.4473 25.2367 14.332 25.1547 15.1875 24.9906C16.043 24.8265 16.8398 24.6097 17.5781 24.3402C18.3164 24.0707 18.9844 23.7601 19.582 23.4086C20.1797 23.057 20.6777 22.6937 21.0762 22.3187V21.4047C20.2793 21.182 19.4883 20.9945 18.7031 20.8422C17.9297 20.6898 17.1855 20.5726 16.4707 20.4906C15.7676 20.3969 15.0996 20.3324 14.4668 20.2972C13.8457 20.2621 13.3008 20.2445 12.832 20.2445C11.8594 20.2445 11.0508 20.309 10.4062 20.4379C9.76172 20.5668 9.24023 20.7426 8.8418 20.9652C8.44336 21.1761 8.16211 21.4281 7.99805 21.7211C7.83398 22.014 7.75195 22.3187 7.75195 22.6351ZM33.1699 8.60779H38.373V10.3656C39.7559 9.58044 41.0742 9.02966 42.3281 8.71326C43.5938 8.39685 44.8301 8.23865 46.0371 8.23865C47.6191 8.23865 49.084 8.47302 50.4316 8.94177C51.7793 9.3988 52.9453 10.0844 53.9297 10.9984C54.9141 11.9125 55.6816 13.0551 56.2324 14.4261C56.7949 15.7855 57.0762 17.3617 57.0762 19.1547V29.35H51.8906V19.9984C51.8906 18.8617 51.7266 17.848 51.3984 16.9574C51.082 16.0551 50.6191 15.2992 50.0098 14.6898C49.4121 14.0687 48.6797 13.6 47.8125 13.2836C46.957 12.9554 45.9961 12.7914 44.9297 12.7914C44.3672 12.7914 43.7871 12.85 43.1895 12.9672C42.6035 13.0844 42.0234 13.2543 41.4492 13.4769C40.8867 13.6879 40.3418 13.9574 39.8145 14.2855C39.2871 14.6019 38.8066 14.9652 38.373 15.3754V29.35H33.1699V8.60779ZM66.2168 5.77771C65.7012 5.77771 65.2324 5.7074 64.8105 5.56677C64.4004 5.41443 64.0488 5.21521 63.7559 4.96912C63.4629 4.7113 63.2344 4.41833 63.0703 4.09021C62.918 3.75037 62.8418 3.39294 62.8418 3.01794C62.8418 2.63123 62.918 2.2738 63.0703 1.94568C63.2344 1.60583 63.4629 1.31287 63.7559 1.06677C64.0488 0.820679 64.4004 0.627319 64.8105 0.486694C65.2324 0.334351 65.7012 0.258179 66.2168 0.258179C66.7441 0.258179 67.2129 0.334351 67.623 0.486694C68.0449 0.627319 68.4023 0.820679 68.6953 1.06677C68.9883 1.31287 69.2109 1.60583 69.3633 1.94568C69.5273 2.2738 69.6094 2.63123 69.6094 3.01794C69.6094 3.39294 69.5273 3.75037 69.3633 4.09021C69.2109 4.41833 68.9883 4.7113 68.6953 4.96912C68.4023 5.21521 68.0449 5.41443 67.623 5.56677C67.2129 5.7074 66.7441 5.77771 66.2168 5.77771ZM63.6152 8.60779H68.8184V29.35H63.6152V8.60779ZM75.6387 8.60779H80.8418V10.3656C82.1426 9.56873 83.4082 9.01794 84.6387 8.71326C85.8809 8.39685 87.0938 8.23865 88.2773 8.23865C89.9297 8.23865 91.4473 8.50232 92.8301 9.02966C94.2129 9.55701 95.3965 10.3539 96.3809 11.4203C97.1426 10.8344 97.8926 10.3422 98.6309 9.94373C99.3691 9.53357 100.107 9.20544 100.846 8.95935C101.584 8.70154 102.334 8.5199 103.096 8.41443C103.857 8.29724 104.643 8.23865 105.451 8.23865C107.15 8.23865 108.691 8.47302 110.074 8.94177C111.457 9.3988 112.635 10.0844 113.607 10.9984C114.592 11.9125 115.348 13.0551 115.875 14.4261C116.414 15.7855 116.684 17.3617 116.684 19.1547V29.35H111.498V19.9984C111.498 18.8617 111.334 17.848 111.006 16.9574C110.689 16.0551 110.238 15.2992 109.652 14.6898C109.078 14.0687 108.387 13.6 107.578 13.2836C106.781 12.9554 105.902 12.7914 104.941 12.7914C104.414 12.7914 103.875 12.8441 103.324 12.9496C102.773 13.0433 102.234 13.1957 101.707 13.4066C101.191 13.6176 100.705 13.8871 100.248 14.2152C99.791 14.5316 99.3926 14.9066 99.0527 15.3402V29.35H93.8672V19.9984C93.8672 18.8617 93.7031 17.848 93.375 16.9574C93.0586 16.0551 92.6074 15.2992 92.0215 14.6898C91.4473 14.0687 90.75 13.6 89.9297 13.2836C89.1211 12.9554 88.2305 12.7914 87.2578 12.7914C86.6602 12.7914 86.0566 12.8558 85.4473 12.9847C84.8496 13.1019 84.2695 13.2719 83.707 13.4945C83.1562 13.7172 82.6348 13.9867 82.1426 14.3031C81.6621 14.6195 81.2285 14.9769 80.8418 15.3754V29.35H75.6387V8.60779ZM122.256 18.9086C122.256 17.5023 122.543 16.1605 123.117 14.8832C123.691 13.5941 124.518 12.4574 125.596 11.473C126.674 10.4886 127.992 9.70349 129.551 9.11755C131.121 8.53162 132.902 8.23865 134.895 8.23865C136.875 8.23865 138.656 8.53748 140.238 9.13513C141.832 9.72107 143.18 10.5297 144.281 11.5609C145.395 12.5922 146.244 13.8051 146.83 15.1996C147.428 16.5941 147.727 18.0883 147.727 19.682C147.727 19.8812 147.721 20.098 147.709 20.3324C147.709 20.5551 147.697 20.7601 147.674 20.9476H128.057C128.279 21.5687 128.637 22.1371 129.129 22.6527C129.633 23.1683 130.26 23.6136 131.01 23.9886C131.76 24.3636 132.627 24.6566 133.611 24.8676C134.596 25.0668 135.686 25.1664 136.881 25.1664C138.076 25.1664 139.266 25.0433 140.449 24.7972C141.633 24.5394 142.764 24.2172 143.842 23.8304L145.6 27.8031C144.92 28.1195 144.229 28.4008 143.525 28.6469C142.834 28.8812 142.107 29.0804 141.346 29.2445C140.596 29.3969 139.805 29.514 138.973 29.5961C138.152 29.6781 137.285 29.7191 136.371 29.7191C134.039 29.7191 131.994 29.4379 130.236 28.8754C128.479 28.3129 127.008 27.5453 125.824 26.5726C124.641 25.6 123.75 24.4574 123.152 23.1449C122.555 21.8324 122.256 20.4203 122.256 18.9086ZM142.207 16.8871C142.02 16.3129 141.727 15.7797 141.328 15.2875C140.941 14.7836 140.455 14.35 139.869 13.9867C139.283 13.6117 138.604 13.3187 137.83 13.1078C137.057 12.8969 136.207 12.7914 135.281 12.7914C134.297 12.7914 133.4 12.9027 132.592 13.1254C131.783 13.348 131.074 13.6469 130.465 14.0219C129.855 14.3969 129.346 14.8304 128.936 15.3226C128.537 15.8148 128.244 16.3363 128.057 16.8871H142.207Z" fill="#EEEEEE"/>
<path d="M152.35 22.8109C152.35 21.8148 152.566 20.9066 153 20.0863C153.434 19.266 154.084 18.5629 154.951 17.9769C155.818 17.3793 156.896 16.9222 158.186 16.6058C159.486 16.2777 160.998 16.1136 162.721 16.1136C163.998 16.1136 165.34 16.2074 166.746 16.3949C168.164 16.5824 169.623 16.8695 171.123 17.2562C171.064 16.6 170.865 15.9965 170.525 15.4457C170.186 14.8832 169.711 14.4027 169.102 14.0043C168.504 13.5941 167.777 13.2777 166.922 13.0551C166.078 12.8324 165.117 12.7211 164.039 12.7211C163.453 12.7211 162.809 12.7562 162.105 12.8265C161.402 12.8969 160.676 13.0023 159.926 13.1429C159.176 13.2836 158.432 13.4594 157.693 13.6703C156.967 13.8812 156.287 14.1332 155.654 14.4261L154.072 10.1547C154.857 9.87341 155.695 9.6156 156.586 9.38123C157.488 9.14685 158.408 8.94763 159.346 8.78357C160.283 8.60779 161.221 8.47302 162.158 8.37927C163.096 8.28552 164.004 8.23865 164.883 8.23865C168.762 8.23865 171.645 9.22888 173.531 11.2094C175.418 13.1898 176.361 16.225 176.361 20.3148V29.35H171.158V27.3988C170.619 27.7152 170.027 28.014 169.383 28.2953C168.75 28.5765 168.059 28.8226 167.309 29.0336C166.559 29.2445 165.75 29.4086 164.883 29.5258C164.027 29.6547 163.119 29.7191 162.158 29.7191C160.541 29.7191 159.117 29.5433 157.887 29.1918C156.668 28.8402 155.648 28.3539 154.828 27.7328C154.008 27.1117 153.387 26.3851 152.965 25.5531C152.555 24.7094 152.35 23.7953 152.35 22.8109ZM157.834 22.6351C157.834 22.975 157.922 23.3031 158.098 23.6195C158.273 23.9242 158.555 24.1996 158.941 24.4457C159.328 24.6801 159.82 24.8734 160.418 25.0258C161.027 25.1664 161.76 25.2367 162.615 25.2367C163.529 25.2367 164.414 25.1547 165.27 24.9906C166.125 24.8265 166.922 24.6097 167.66 24.3402C168.398 24.0707 169.066 23.7601 169.664 23.4086C170.262 23.057 170.76 22.6937 171.158 22.3187V21.4047C170.361 21.182 169.57 20.9945 168.785 20.8422C168.012 20.6898 167.268 20.5726 166.553 20.4906C165.85 20.3969 165.182 20.3324 164.549 20.2972C163.928 20.2621 163.383 20.2445 162.914 20.2445C161.941 20.2445 161.133 20.309 160.488 20.4379C159.844 20.5668 159.322 20.7426 158.924 20.9652C158.525 21.1761 158.244 21.4281 158.08 21.7211C157.916 22.014 157.834 22.3187 157.834 22.6351ZM183.393 0.187866H188.596V29.35H183.393V0.187866ZM195.416 0.187866H200.619V29.35H195.416V0.187866ZM206.314 18.9086C206.314 17.5023 206.602 16.1605 207.176 14.8832C207.75 13.5941 208.576 12.4574 209.654 11.473C210.732 10.4886 212.051 9.70349 213.609 9.11755C215.18 8.53162 216.961 8.23865 218.953 8.23865C220.934 8.23865 222.715 8.53748 224.297 9.13513C225.891 9.72107 227.238 10.5297 228.34 11.5609C229.453 12.5922 230.303 13.8051 230.889 15.1996C231.486 16.5941 231.785 18.0883 231.785 19.682C231.785 19.8812 231.779 20.098 231.768 20.3324C231.768 20.5551 231.756 20.7601 231.732 20.9476H212.115C212.338 21.5687 212.695 22.1371 213.188 22.6527C213.691 23.1683 214.318 23.6136 215.068 23.9886C215.818 24.3636 216.686 24.6566 217.67 24.8676C218.654 25.0668 219.744 25.1664 220.939 25.1664C222.135 25.1664 223.324 25.0433 224.508 24.7972C225.691 24.5394 226.822 24.2172 227.9 23.8304L229.658 27.8031C228.979 28.1195 228.287 28.4008 227.584 28.6469C226.893 28.8812 226.166 29.0804 225.404 29.2445C224.654 29.3969 223.863 29.514 223.031 29.5961C222.211 29.6781 221.344 29.7191 220.43 29.7191C218.098 29.7191 216.053 29.4379 214.295 28.8754C212.537 28.3129 211.066 27.5453 209.883 26.5726C208.699 25.6 207.809 24.4574 207.211 23.1449C206.613 21.8324 206.314 20.4203 206.314 18.9086ZM226.266 16.8871C226.078 16.3129 225.785 15.7797 225.387 15.2875C225 14.7836 224.514 14.35 223.928 13.9867C223.342 13.6117 222.662 13.3187 221.889 13.1078C221.115 12.8969 220.266 12.7914 219.34 12.7914C218.355 12.7914 217.459 12.9027 216.65 13.1254C215.842 13.348 215.133 13.6469 214.523 14.0219C213.914 14.3969 213.404 14.8304 212.994 15.3226C212.596 15.8148 212.303 16.3363 212.115 16.8871H226.266ZM239.871 31.9515C240.41 32.3031 240.996 32.6136 241.629 32.8832C242.262 33.1527 242.918 33.3754 243.598 33.5511C244.289 33.7269 244.992 33.8558 245.707 33.9379C246.422 34.0316 247.131 34.0785 247.834 34.0785C250.225 34.0785 252.064 33.5629 253.354 32.5316C254.654 31.5121 255.305 29.9769 255.305 27.9261V27.223C254.848 27.5394 254.332 27.8324 253.758 28.1019C253.195 28.3597 252.586 28.5824 251.93 28.7699C251.285 28.9574 250.6 29.1039 249.873 29.2094C249.158 29.3031 248.432 29.35 247.693 29.35C246.111 29.35 244.693 29.1215 243.439 28.6644C242.197 28.1957 241.143 27.516 240.275 26.6254C239.42 25.723 238.764 24.6156 238.307 23.3031C237.85 21.9906 237.621 20.4906 237.621 18.8031V8.60779H242.807V17.3617C242.807 19.8695 243.281 21.7211 244.23 22.9164C245.191 24.1 246.703 24.6918 248.766 24.6918C250.219 24.6918 251.502 24.4398 252.615 23.9359C253.74 23.4203 254.637 22.764 255.305 21.9672V8.60779H260.508V26.9769C260.508 28.9574 260.227 30.6742 259.664 32.1273C259.102 33.5922 258.281 34.8051 257.203 35.766C256.137 36.7269 254.824 37.4418 253.266 37.9105C251.707 38.391 249.938 38.6312 247.957 38.6312C246.023 38.6312 244.219 38.4261 242.543 38.016C240.867 37.6058 239.332 37.0492 237.938 36.3461L239.871 31.9515Z" fill="#D84040"/>
<path d="M311 28.6172C311.034 28.6112 307.919 29.1913 305.802 29.3553C305.024 29.4191 304.236 29.4707 303.429 29.4904V36.35H306.75C309.087 36.35 311 34.9832 311 33.3128V28.6172ZM294 28.6172C293.966 28.6112 297.081 29.1913 299.198 29.3553C299.976 29.4191 300.764 29.4707 301.571 29.4904V36.35H298.25C295.913 36.35 294 34.9832 294 33.3128V28.6172Z" fill="#EEEEEE"/>
<path d="M334.567 4.28643C334.24 3.9353 332.141 4.86601 330.017 3.67089C325.636 1.20452 314.565 -1.17513 307.358 4.46622C306.586 5.06907 303.362 5.1706 302.46 5.1283C301.558 5.17272 298.333 5.07118 297.562 4.46622C290.356 -1.17513 279.285 1.20452 274.904 3.67089C272.781 4.86601 270.682 3.9353 270.354 4.28643C269.882 4.79197 269.882 6.81626 270.356 7.32392C270.827 7.82946 273.185 8.41327 273.654 9.9299C274.127 11.4486 274.13 20.4173 277.891 23.5182C281.412 26.4203 289.627 27.2939 294.833 24.0217C299.375 21.1682 299.216 15.1609 300.049 11.5819C300.346 10.3064 301.183 9.66338 302.462 9.66338C303.741 9.66338 304.578 10.3064 304.874 11.5819C305.707 15.1588 305.546 21.1682 310.09 24.0217C315.297 27.2918 323.511 26.4182 327.03 23.5182C330.793 20.4194 330.797 11.4486 331.268 9.9299C331.737 8.41327 334.094 7.82735 334.565 7.32392C335.04 6.81626 335.042 4.79197 334.567 4.28643ZM295.9 12.0071C295.752 14.3444 295.375 18.833 292.842 20.4257C291.289 21.403 289.265 21.9974 287.147 21.9974H287.145C284.8 21.9974 281.548 21.2634 280.277 20.2163C278.688 18.907 278.083 13.5174 277.855 11.5015C277.709 10.2176 277.319 7.08067 278.598 6.59839C280.627 5.83479 283.459 5.23829 286.356 5.23829C287.683 5.23829 292.141 5.32924 294.312 6.80568C296.237 8.11079 295.982 10.721 295.9 12.0071ZM327.069 11.4719C326.841 13.4899 326.236 18.907 324.646 20.2163C323.375 21.2634 320.124 21.9974 317.778 21.9974H317.776C315.657 21.9974 313.635 21.403 312.08 20.4257C309.546 18.8351 309.169 14.374 309.022 12.0367C308.941 10.7506 308.685 8.12137 310.609 6.81626C312.782 5.33982 317.238 5.23829 318.565 5.23829C321.462 5.23829 324.292 5.82421 326.324 6.58781C327.603 7.07009 327.214 10.188 327.069 11.4719Z" fill="#D84040"/>
</svg>
